<svg xmlns="http://www.w3.org/2000/svg" viewBox="0 0 48 48" fill="#f1c40f"><path fill="#37474F" d="M24 44.001c-1.168 0-2.292-.454-3.082-1.244l-15.672-15.676c-.792-.789-1.246-1.913-1.246-3.082s.455-2.293 1.248-3.083l15.67-15.677c.791-.788 1.915-1.239 3.082-1.239 1.168 0 2.29.451 3.08 1.237l15.674 15.68c.791.79 1.246 1.913 1.246 3.082s-.455 2.293-1.247 3.083l-15.671 15.675c-.79.79-1.914 1.244-3.082 1.244z"/><path fill="#FDD835" d="M41.341 22.332l-15.673-15.679c-.417-.414-1.025-.653-1.668-.653s-1.251.239-1.669.655l-15.671 15.676c-.42.419-.66 1.027-.66 1.668 0 .642.24 1.249.66 1.667l15.673 15.677c.836.836 2.5.836 3.336 0l15.671-15.676c.42-.419.66-1.026.66-1.668s-.24-1.249-.659-1.667zm-14.341 5.668v-4h-5c-1 .038-1 .664-1 1v6h-4v-6c0-3.668 2.99-5 5-5h5v-4l7 6-7 6z"/></svg>